<svg width="35px" height="30px" viewBox="0 0 35 30" version="1.1" xmlns="http://www.w3.org/2000/svg" style="clip-rule:evenodd;stroke-linejoin:round;stroke-miterlimit:2;">
<path d="M18.876,29.977C19.305,29.977 19.708,29.887 20.085,29.707C20.463,29.526 20.863,29.238 21.285,28.841L34.04,16.858C34.357,16.562 34.581,16.248 34.712,15.917C34.843,15.585 34.909,15.276 34.909,14.989C34.909,14.687 34.844,14.372 34.714,14.044C34.584,13.717 34.36,13.405 34.043,13.109L21.285,1.218C20.82,0.78 20.412,0.468 20.062,0.281C19.711,0.094 19.325,0 18.903,0C18.263,0 17.736,0.217 17.323,0.652C16.91,1.087 16.703,1.612 16.703,2.226L16.703,8L16.304,8C13.517,8 11.098,8.432 9.047,9.296C6.996,10.16 5.303,11.413 3.966,13.054C2.63,14.696 1.635,16.68 0.981,19.007C0.327,21.334 0,23.96 0,26.885C0,27.878 0.19,28.631 0.57,29.142C0.949,29.654 1.417,29.909 1.973,29.909C2.391,29.909 2.794,29.818 3.179,29.636C3.565,29.454 3.913,29.071 4.224,28.486C5.072,26.898 6.058,25.631 7.183,24.686C8.309,23.74 9.618,23.059 11.112,22.642C12.607,22.225 14.337,22.016 16.304,22.016L16.703,22.016L16.703,27.82C16.703,28.441 16.91,28.955 17.323,29.364C17.736,29.773 18.254,29.977 18.876,29.977Z"/>
</svg>
