<svg width="35px" height="30px" viewBox="0 0 35 30" version="1.1" xmlns="http://www.w3.org/2000/svg" style="clip-rule:evenodd;stroke-linejoin:round;stroke-miterlimit:2;">
<path d="M16.032,0C16.655,0 17.17,0.204 17.579,0.613C17.988,1.022 18.192,1.536 18.192,2.157L18.192,7.961L18.594,7.961C20.57,7.961 22.305,7.752 23.799,7.335C25.293,6.918 26.603,6.237 27.728,5.292C28.853,4.346 29.84,3.079 30.688,1.491C31.005,0.91 31.354,0.528 31.737,0.344C32.119,0.16 32.52,0.068 32.939,0.068C33.492,0.068 33.96,0.324 34.34,0.835C34.721,1.347 34.911,2.099 34.911,3.093C34.911,6.017 34.585,8.643 33.931,10.97C33.277,13.297 32.282,15.282 30.945,16.923C29.609,18.564 27.915,19.817 25.863,20.681C23.811,21.545 21.388,21.977 18.594,21.977L18.192,21.977L18.192,27.752C18.192,28.365 17.988,28.89 17.579,29.325C17.17,29.76 16.646,29.977 16.006,29.977C15.577,29.977 15.189,29.884 14.843,29.697C14.497,29.51 14.092,29.197 13.627,28.759L0.866,16.868C0.549,16.572 0.325,16.26 0.195,15.933C0.065,15.606 -0,15.291 -0,14.989C-0,14.701 0.066,14.392 0.198,14.061C0.33,13.729 0.554,13.416 0.872,13.12L13.627,1.136C14.047,0.739 14.444,0.451 14.818,0.271C15.193,0.09 15.597,0 16.032,0Z"/>
</svg>
